<svg xmlns="http://www.w3.org/2000/svg" id="export" class="canvas" preserveAspectRatio="xMidYMid meet" style="" width="130" height="1274"><rect id="background" fill="#fff" pointer-events="all" width="130" height="1274"/><g id="origin" transform="translate(5.9051757812500005, 5.9051757812500005) scale(1)"><g id="clusters" class="clusters"/><g id="edge-paths" class="edge-paths"><defs><marker id="arrowhead" viewBox="0 0 10 10" refX="9" refY="5" markerUnits="strokeWidth" markerWidth="8" markerHeight="6" orient="auto" style="fill: rgb(0, 0, 0);"><path d="M 0 0 L 10 5 L 0 10 L 4 5 z" style="stroke-width: 1;"/></marker><marker id="arrowhead-select" viewBox="0 0 10 10" refX="9" refY="5" markerUnits="strokeWidth" markerWidth="8" markerHeight="6" orient="auto" style="fill: rgb(238, 0, 0);"><path d="M 0 0 L 10 5 L 0 10 L 4 5 z" style="stroke-width: 1;"/></marker><marker id="arrowhead-hover" viewBox="0 0 10 10" refX="9" refY="5" markerUnits="strokeWidth" markerWidth="8" markerHeight="6" orient="auto"><path d="M 0 0 L 10 5 L 0 10 L 4 5 z" style="stroke-width: 1;"/></marker></defs><path id="edge-input" class="edge-path" d="M48.671875,23L48.671875,24.666666666666668C48.671875,26.333333333333332,48.671875,29.666666666666668,48.671875,33C48.671875,36.333333333333336,48.671875,39.666666666666664,48.671875,43C48.671875,46.333333333333336,48.671875,49.666666666666664,48.671875,53C48.671875,56.333333333333336,48.671875,59.666666666666664,48.671875,61.333333333333336L48.671875,63" style="stroke: rgb(0, 0, 0); stroke-width: 1px; fill: none; marker-end: url(&quot;#arrowhead&quot;);"/><path class="edge-path-hit-test" d="M48.671875,23L48.671875,24.666666666666668C48.671875,26.333333333333332,48.671875,29.666666666666668,48.671875,33C48.671875,36.333333333333336,48.671875,39.666666666666664,48.671875,43C48.671875,46.333333333333336,48.671875,49.666666666666664,48.671875,53C48.671875,56.333333333333336,48.671875,59.666666666666664,48.671875,61.333333333333336L48.671875,63" style="pointer-events: stroke; stroke-width: 0.5em; fill: none; stroke: rgb(0, 0, 0); stroke-opacity: 0.001;"/><path id="edge-/Reshape_output_0" class="edge-path" d="M48.671875,106L48.671875,107.66666666666667C48.671875,109.33333333333333,48.671875,112.66666666666667,48.671875,116C48.671875,119.33333333333333,48.671875,122.66666666666667,48.671875,124.33333333333333L48.671875,126" style="stroke: rgb(0, 0, 0); stroke-width: 1px; fill: none; marker-end: url(&quot;#arrowhead&quot;);"/><path class="edge-path-hit-test" d="M48.671875,106L48.671875,107.66666666666667C48.671875,109.33333333333333,48.671875,112.66666666666667,48.671875,116C48.671875,119.33333333333333,48.671875,122.66666666666667,48.671875,124.33333333333333L48.671875,126" style="pointer-events: stroke; stroke-width: 0.5em; fill: none; stroke: rgb(0, 0, 0); stroke-opacity: 0.001;"/><path id="edge-/conv1_seq/conv1_seq.0/Conv_output_0" class="edge-path" d="M48.671875,183L48.671875,184.66666666666666C48.671875,186.33333333333334,48.671875,189.66666666666666,48.671875,193C48.671875,196.33333333333334,48.671875,199.66666666666666,48.671875,201.33333333333334L48.671875,203" style="stroke: rgb(0, 0, 0); stroke-width: 1px; fill: none; marker-end: url(&quot;#arrowhead&quot;);"/><path class="edge-path-hit-test" d="M48.671875,183L48.671875,184.66666666666666C48.671875,186.33333333333334,48.671875,189.66666666666666,48.671875,193C48.671875,196.33333333333334,48.671875,199.66666666666666,48.671875,201.33333333333334L48.671875,203" style="pointer-events: stroke; stroke-width: 0.5em; fill: none; stroke: rgb(0, 0, 0); stroke-opacity: 0.001;"/><path id="edge-/conv1_seq/conv1_seq.2/MaxPool_output_0" class="edge-path" d="M48.671875,226L48.671875,227.66666666666666C48.671875,229.33333333333334,48.671875,232.66666666666666,48.671875,236C48.671875,239.33333333333334,48.671875,242.66666666666666,48.671875,244.33333333333334L48.671875,246" style="stroke: rgb(0, 0, 0); stroke-width: 1px; fill: none; marker-end: url(&quot;#arrowhead&quot;);"/><path class="edge-path-hit-test" d="M48.671875,226L48.671875,227.66666666666666C48.671875,229.33333333333334,48.671875,232.66666666666666,48.671875,236C48.671875,239.33333333333334,48.671875,242.66666666666666,48.671875,244.33333333333334L48.671875,246" style="pointer-events: stroke; stroke-width: 0.5em; fill: none; stroke: rgb(0, 0, 0); stroke-opacity: 0.001;"/><path id="edge-/conv1_seq/conv1_seq.3/Relu_output_0" class="edge-path" d="M48.671875,269L48.671875,270.6666666666667C48.671875,272.3333333333333,48.671875,275.6666666666667,48.671875,279C48.671875,282.3333333333333,48.671875,285.6666666666667,48.671875,287.3333333333333L48.671875,289" style="stroke: rgb(0, 0, 0); stroke-width: 1px; fill: none; marker-end: url(&quot;#arrowhead&quot;);"/><path class="edge-path-hit-test" d="M48.671875,269L48.671875,270.6666666666667C48.671875,272.3333333333333,48.671875,275.6666666666667,48.671875,279C48.671875,282.3333333333333,48.671875,285.6666666666667,48.671875,287.3333333333333L48.671875,289" style="pointer-events: stroke; stroke-width: 0.5em; fill: none; stroke: rgb(0, 0, 0); stroke-opacity: 0.001;"/><path id="edge-/conv2_seq/conv2_seq.0/Conv_output_0" class="edge-path" d="M48.671875,346L48.671875,347.6666666666667C48.671875,349.3333333333333,48.671875,352.6666666666667,48.671875,356C48.671875,359.3333333333333,48.671875,362.6666666666667,48.671875,364.3333333333333L48.671875,366" style="stroke: rgb(0, 0, 0); stroke-width: 1px; fill: none; marker-end: url(&quot;#arrowhead&quot;);"/><path class="edge-path-hit-test" d="M48.671875,346L48.671875,347.6666666666667C48.671875,349.3333333333333,48.671875,352.6666666666667,48.671875,356C48.671875,359.3333333333333,48.671875,362.6666666666667,48.671875,364.3333333333333L48.671875,366" style="pointer-events: stroke; stroke-width: 0.5em; fill: none; stroke: rgb(0, 0, 0); stroke-opacity: 0.001;"/><path id="edge-/conv2_seq/conv2_seq.2/MaxPool_output_0" class="edge-path" d="M48.671875,389L48.671875,390.6666666666667C48.671875,392.3333333333333,48.671875,395.6666666666667,48.671875,399C48.671875,402.3333333333333,48.671875,405.6666666666667,48.671875,407.3333333333333L48.671875,409" style="stroke: rgb(0, 0, 0); stroke-width: 1px; fill: none; marker-end: url(&quot;#arrowhead&quot;);"/><path class="edge-path-hit-test" d="M48.671875,389L48.671875,390.6666666666667C48.671875,392.3333333333333,48.671875,395.6666666666667,48.671875,399C48.671875,402.3333333333333,48.671875,405.6666666666667,48.671875,407.3333333333333L48.671875,409" style="pointer-events: stroke; stroke-width: 0.5em; fill: none; stroke: rgb(0, 0, 0); stroke-opacity: 0.001;"/><path id="edge-/conv2_seq/conv2_seq.3/Relu_output_0" class="edge-path" d="M48.671875,432L48.671875,433.6666666666667C48.671875,435.3333333333333,48.671875,438.6666666666667,48.671875,442C48.671875,445.3333333333333,48.671875,448.6666666666667,48.671875,450.3333333333333L48.671875,452" style="stroke: rgb(0, 0, 0); stroke-width: 1px; fill: none; marker-end: url(&quot;#arrowhead&quot;);"/><path class="edge-path-hit-test" d="M48.671875,432L48.671875,433.6666666666667C48.671875,435.3333333333333,48.671875,438.6666666666667,48.671875,442C48.671875,445.3333333333333,48.671875,448.6666666666667,48.671875,450.3333333333333L48.671875,452" style="pointer-events: stroke; stroke-width: 0.5em; fill: none; stroke: rgb(0, 0, 0); stroke-opacity: 0.001;"/><path id="edge-/conv3_seq/conv3_seq.0/Conv_output_0" class="edge-path" d="M48.671875,509L48.671875,510.6666666666667C48.671875,512.3333333333334,48.671875,515.6666666666666,48.671875,519C48.671875,522.3333333333334,48.671875,525.6666666666666,48.671875,527.3333333333334L48.671875,529" style="stroke: rgb(0, 0, 0); stroke-width: 1px; fill: none; marker-end: url(&quot;#arrowhead&quot;);"/><path class="edge-path-hit-test" d="M48.671875,509L48.671875,510.6666666666667C48.671875,512.3333333333334,48.671875,515.6666666666666,48.671875,519C48.671875,522.3333333333334,48.671875,525.6666666666666,48.671875,527.3333333333334L48.671875,529" style="pointer-events: stroke; stroke-width: 0.5em; fill: none; stroke: rgb(0, 0, 0); stroke-opacity: 0.001;"/><path id="edge-/conv3_seq/conv3_seq.2/Relu_output_0" class="edge-path" d="M48.671875,552L48.671875,553.6666666666666C48.671875,555.3333333333334,48.671875,558.6666666666666,48.671875,562C48.671875,565.3333333333334,48.671875,568.6666666666666,48.671875,570.3333333333334L48.671875,572" style="stroke: rgb(0, 0, 0); stroke-width: 1px; fill: none; marker-end: url(&quot;#arrowhead&quot;);"/><path class="edge-path-hit-test" d="M48.671875,552L48.671875,553.6666666666666C48.671875,555.3333333333334,48.671875,558.6666666666666,48.671875,562C48.671875,565.3333333333334,48.671875,568.6666666666666,48.671875,570.3333333333334L48.671875,572" style="pointer-events: stroke; stroke-width: 0.5em; fill: none; stroke: rgb(0, 0, 0); stroke-opacity: 0.001;"/><path id="edge-/conv4_seq/conv4_seq.0/Conv_output_0" class="edge-path" d="M48.671875,629L48.671875,630.6666666666666C48.671875,632.3333333333334,48.671875,635.6666666666666,48.671875,639C48.671875,642.3333333333334,48.671875,645.6666666666666,48.671875,647.3333333333334L48.671875,649" style="stroke: rgb(0, 0, 0); stroke-width: 1px; fill: none; marker-end: url(&quot;#arrowhead&quot;);"/><path class="edge-path-hit-test" d="M48.671875,629L48.671875,630.6666666666666C48.671875,632.3333333333334,48.671875,635.6666666666666,48.671875,639C48.671875,642.3333333333334,48.671875,645.6666666666666,48.671875,647.3333333333334L48.671875,649" style="pointer-events: stroke; stroke-width: 0.5em; fill: none; stroke: rgb(0, 0, 0); stroke-opacity: 0.001;"/><path id="edge-/conv4_seq/conv4_seq.2/Relu_output_0" class="edge-path" d="M48.671875,672L48.671875,673.6666666666666C48.671875,675.3333333333334,48.671875,678.6666666666666,48.671875,682C48.671875,685.3333333333334,48.671875,688.6666666666666,48.671875,690.3333333333334L48.671875,692" style="stroke: rgb(0, 0, 0); stroke-width: 1px; fill: none; marker-end: url(&quot;#arrowhead&quot;);"/><path class="edge-path-hit-test" d="M48.671875,672L48.671875,673.6666666666666C48.671875,675.3333333333334,48.671875,678.6666666666666,48.671875,682C48.671875,685.3333333333334,48.671875,688.6666666666666,48.671875,690.3333333333334L48.671875,692" style="pointer-events: stroke; stroke-width: 0.5em; fill: none; stroke: rgb(0, 0, 0); stroke-opacity: 0.001;"/><path id="edge-/conv5_seq/conv5_seq.0/Conv_output_0" class="edge-path" d="M48.671875,749L48.671875,750.6666666666666C48.671875,752.3333333333334,48.671875,755.6666666666666,48.671875,759C48.671875,762.3333333333334,48.671875,765.6666666666666,48.671875,767.3333333333334L48.671875,769" style="stroke: rgb(0, 0, 0); stroke-width: 1px; fill: none; marker-end: url(&quot;#arrowhead&quot;);"/><path class="edge-path-hit-test" d="M48.671875,749L48.671875,750.6666666666666C48.671875,752.3333333333334,48.671875,755.6666666666666,48.671875,759C48.671875,762.3333333333334,48.671875,765.6666666666666,48.671875,767.3333333333334L48.671875,769" style="pointer-events: stroke; stroke-width: 0.5em; fill: none; stroke: rgb(0, 0, 0); stroke-opacity: 0.001;"/><path id="edge-/conv5_seq/conv5_seq.2/MaxPool_output_0" class="edge-path" d="M48.671875,792L48.671875,793.6666666666666C48.671875,795.3333333333334,48.671875,798.6666666666666,48.671875,802C48.671875,805.3333333333334,48.671875,808.6666666666666,48.671875,810.3333333333334L48.671875,812" style="stroke: rgb(0, 0, 0); stroke-width: 1px; fill: none; marker-end: url(&quot;#arrowhead&quot;);"/><path class="edge-path-hit-test" d="M48.671875,792L48.671875,793.6666666666666C48.671875,795.3333333333334,48.671875,798.6666666666666,48.671875,802C48.671875,805.3333333333334,48.671875,808.6666666666666,48.671875,810.3333333333334L48.671875,812" style="pointer-events: stroke; stroke-width: 0.5em; fill: none; stroke: rgb(0, 0, 0); stroke-opacity: 0.001;"/><path id="edge-/conv5_seq/conv5_seq.3/Relu_output_0" class="edge-path" d="M48.671875,835L48.671875,836.6666666666666C48.671875,838.3333333333334,48.671875,841.6666666666666,48.671875,845C48.671875,848.3333333333334,48.671875,851.6666666666666,48.671875,853.3333333333334L48.671875,855" style="stroke: rgb(0, 0, 0); stroke-width: 1px; fill: none; marker-end: url(&quot;#arrowhead&quot;);"/><path class="edge-path-hit-test" d="M48.671875,835L48.671875,836.6666666666666C48.671875,838.3333333333334,48.671875,841.6666666666666,48.671875,845C48.671875,848.3333333333334,48.671875,851.6666666666666,48.671875,853.3333333333334L48.671875,855" style="pointer-events: stroke; stroke-width: 0.5em; fill: none; stroke: rgb(0, 0, 0); stroke-opacity: 0.001;"/><path id="edge-/flatten/Flatten_output_0" class="edge-path" d="M48.671875,878L48.671875,879.6666666666666C48.671875,881.3333333333334,48.671875,884.6666666666666,48.671875,888C48.671875,891.3333333333334,48.671875,894.6666666666666,48.671875,896.3333333333334L48.671875,898" style="stroke: rgb(0, 0, 0); stroke-width: 1px; fill: none; marker-end: url(&quot;#arrowhead&quot;);"/><path class="edge-path-hit-test" d="M48.671875,878L48.671875,879.6666666666666C48.671875,881.3333333333334,48.671875,884.6666666666666,48.671875,888C48.671875,891.3333333333334,48.671875,894.6666666666666,48.671875,896.3333333333334L48.671875,898" style="pointer-events: stroke; stroke-width: 0.5em; fill: none; stroke: rgb(0, 0, 0); stroke-opacity: 0.001;"/><path id="edge-/fc1/fc1.0/Gemm_output_0" class="edge-path" d="M48.671875,955L48.671875,956.6666666666666C48.671875,958.3333333333334,48.671875,961.6666666666666,48.671875,965C48.671875,968.3333333333334,48.671875,971.6666666666666,48.671875,973.3333333333334L48.671875,975" style="stroke: rgb(0, 0, 0); stroke-width: 1px; fill: none; marker-end: url(&quot;#arrowhead&quot;);"/><path class="edge-path-hit-test" d="M48.671875,955L48.671875,956.6666666666666C48.671875,958.3333333333334,48.671875,961.6666666666666,48.671875,965C48.671875,968.3333333333334,48.671875,971.6666666666666,48.671875,973.3333333333334L48.671875,975" style="pointer-events: stroke; stroke-width: 0.5em; fill: none; stroke: rgb(0, 0, 0); stroke-opacity: 0.001;"/><path id="edge-/fc1/fc1.1/Relu_output_0" class="edge-path" d="M48.671875,998L48.671875,999.6666666666666C48.671875,1001.3333333333334,48.671875,1004.6666666666666,48.671875,1008C48.671875,1011.3333333333334,48.671875,1014.6666666666666,48.671875,1016.3333333333334L48.671875,1018" style="stroke: rgb(0, 0, 0); stroke-width: 1px; fill: none; marker-end: url(&quot;#arrowhead&quot;);"/><path class="edge-path-hit-test" d="M48.671875,998L48.671875,999.6666666666666C48.671875,1001.3333333333334,48.671875,1004.6666666666666,48.671875,1008C48.671875,1011.3333333333334,48.671875,1014.6666666666666,48.671875,1016.3333333333334L48.671875,1018" style="pointer-events: stroke; stroke-width: 0.5em; fill: none; stroke: rgb(0, 0, 0); stroke-opacity: 0.001;"/><path id="edge-/fc2/fc2.0/Gemm_output_0" class="edge-path" d="M48.671875,1075L48.671875,1076.6666666666667C48.671875,1078.3333333333333,48.671875,1081.6666666666667,48.671875,1085C48.671875,1088.3333333333333,48.671875,1091.6666666666667,48.671875,1093.3333333333333L48.671875,1095" style="stroke: rgb(0, 0, 0); stroke-width: 1px; fill: none; marker-end: url(&quot;#arrowhead&quot;);"/><path class="edge-path-hit-test" d="M48.671875,1075L48.671875,1076.6666666666667C48.671875,1078.3333333333333,48.671875,1081.6666666666667,48.671875,1085C48.671875,1088.3333333333333,48.671875,1091.6666666666667,48.671875,1093.3333333333333L48.671875,1095" style="pointer-events: stroke; stroke-width: 0.5em; fill: none; stroke: rgb(0, 0, 0); stroke-opacity: 0.001;"/><path id="edge-/fc2/fc2.1/Relu_output_0" class="edge-path" d="M48.671875,1118L48.671875,1119.6666666666667C48.671875,1121.3333333333333,48.671875,1124.6666666666667,48.671875,1128C48.671875,1131.3333333333333,48.671875,1134.6666666666667,48.671875,1136.3333333333333L48.671875,1138" style="stroke: rgb(0, 0, 0); stroke-width: 1px; fill: none; marker-end: url(&quot;#arrowhead&quot;);"/><path class="edge-path-hit-test" d="M48.671875,1118L48.671875,1119.6666666666667C48.671875,1121.3333333333333,48.671875,1124.6666666666667,48.671875,1128C48.671875,1131.3333333333333,48.671875,1134.6666666666667,48.671875,1136.3333333333333L48.671875,1138" style="pointer-events: stroke; stroke-width: 0.5em; fill: none; stroke: rgb(0, 0, 0); stroke-opacity: 0.001;"/><path id="edge-output" class="edge-path" d="M48.671875,1195L48.671875,1198.6666666666667C48.671875,1202.3333333333333,48.671875,1209.6666666666667,48.671875,1217C48.671875,1224.3333333333333,48.671875,1231.6666666666667,48.671875,1235.3333333333333L48.671875,1239" style="stroke: rgb(0, 0, 0); stroke-width: 1px; fill: none; marker-end: url(&quot;#arrowhead&quot;);"/><path class="edge-path-hit-test" d="M48.671875,1195L48.671875,1198.6666666666667C48.671875,1202.3333333333333,48.671875,1209.6666666666667,48.671875,1217C48.671875,1224.3333333333333,48.671875,1231.6666666666667,48.671875,1235.3333333333333L48.671875,1239" style="pointer-events: stroke; stroke-width: 0.5em; fill: none; stroke: rgb(0, 0, 0); stroke-opacity: 0.001;"/></g><g id="edge-labels" class="edge-labels"><text class="edge-label" id="edge-label-edge-output" transform="translate(53.671875,1210)" style="opacity: 1; font-family: -apple-system, BlinkMacSystemFont, &quot;Segoe WPC&quot;, &quot;Segoe UI&quot;, Ubuntu, &quot;Droid Sans&quot;, sans-serif, &quot;PingFang SC&quot;; font-size: 10px;"><tspan xml:space="preserve" dy="1em" x="1">batch_size×10</tspan></text></g><g id="nodes" class="nodes"><g id="input-name-input" class="node graph-input" transform="translate(28.88134765625,0)" style=""><g class="node-item graph-item-input" transform="translate(0,0)"><path d="M5,0h29.5810546875a5,5 0 0 1 5,5v13a5,5 0 0 1 -5,5h-29.5810546875a5,5 0 0 1 -5,-5v-13a5,5 0 0 1 5,-5z" style="stroke: rgb(0, 0, 0); fill: rgb(238, 238, 238); stroke-width: 0;"/><text x="6" y="16" style="font-family: -apple-system, BlinkMacSystemFont, &quot;Segoe WPC&quot;, &quot;Segoe UI&quot;, Ubuntu, &quot;Droid Sans&quot;, sans-serif, &quot;PingFang SC&quot;; font-size: 11px; text-rendering: geometricprecision; user-select: none;">input</text><title>float32[batch_size,3,32,32]</title></g><path class="node node-border" d="M5,0h29.5810546875a5,5 0 0 1 5,5v13a5,5 0 0 1 -5,5h-29.5810546875a5,5 0 0 1 -5,-5v-13a5,5 0 0 1 5,-5z" style="stroke: rgb(51, 51, 51); fill: none; stroke-width: 1px;"/></g><g id="node-name-/Reshape" class="node graph-node" transform="translate(11.171875,63)" style=""><g class="node-item node-item-type node-item-type-shape" transform="translate(0,0)"><path d="M5,0h65a5,5 0 0 1 5,5v18a0,0 0 0 1 0,0h-75a0,0 0 0 1 0,0v-18a5,5 0 0 1 5,-5z" style="stroke: rgb(0, 0, 0); fill: rgb(108, 79, 71); stroke-width: 0;"/><text x="6" y="16" style="font-family: -apple-system, BlinkMacSystemFont, &quot;Segoe WPC&quot;, &quot;Segoe UI&quot;, Ubuntu, &quot;Droid Sans&quot;, sans-serif, &quot;PingFang SC&quot;; font-size: 11px; text-rendering: geometricprecision; user-select: none; fill: rgb(255, 255, 255);">Reshape</text><title>/Reshape</title></g><g class="node-attribute-list" transform="translate(0,23)"><path d="M0,0h75a0,0 0 0 1 0,0v15a5,5 0 0 1 -5,5h-65a5,5 0 0 1 -5,-5v-15a0,0 0 0 1 0,0z" style="stroke: rgb(0, 0, 0); fill: rgb(255, 255, 255); stroke-width: 0;"/><g class="node-attribute"><text xml:space="preserve" x="6" y="14" style="font-family: -apple-system, BlinkMacSystemFont, &quot;Segoe WPC&quot;, &quot;Segoe UI&quot;, Ubuntu, &quot;Droid Sans&quot;, sans-serif, &quot;PingFang SC&quot;; font-size: 9px; font-weight: normal; text-rendering: geometricprecision; user-select: none;"><title>int64[4]</title><tspan style="font-weight: bold;">shape</tspan><tspan>〈4〉</tspan></text></g><line class="node" x1="0" x2="75" y1="0" y2="0" style="stroke: rgb(51, 51, 51); fill: none; stroke-width: 1px;"/></g><path class="node node-border" d="M5,0h65a5,5 0 0 1 5,5v33a5,5 0 0 1 -5,5h-65a5,5 0 0 1 -5,-5v-33a5,5 0 0 1 5,-5z" style="stroke: rgb(51, 51, 51); fill: none; stroke-width: 1px;"/></g><g id="node-name-/conv1_seq/conv1_seq.0/Conv" class="node graph-node" transform="translate(7.28125,126)" style=""><g class="node-item node-item-type node-item-type-layer" transform="translate(0,0)"><path d="M5,0h72.78125a5,5 0 0 1 5,5v18a0,0 0 0 1 0,0h-82.78125a0,0 0 0 1 0,0v-18a5,5 0 0 1 5,-5z" style="stroke: rgb(0, 0, 0); fill: rgb(51, 85, 136); stroke-width: 0;"/><text x="6" y="16" style="font-family: -apple-system, BlinkMacSystemFont, &quot;Segoe WPC&quot;, &quot;Segoe UI&quot;, Ubuntu, &quot;Droid Sans&quot;, sans-serif, &quot;PingFang SC&quot;; font-size: 11px; text-rendering: geometricprecision; user-select: none; fill: rgb(255, 255, 255);">Conv</text><title>/conv1_seq/conv1_seq.0/Conv</title></g><g class="node-attribute-list" transform="translate(0,23)"><path d="M0,0h82.78125a0,0 0 0 1 0,0v29a5,5 0 0 1 -5,5h-72.78125a5,5 0 0 1 -5,-5v-29a0,0 0 0 1 0,0z" style="stroke: rgb(0, 0, 0); fill: rgb(255, 255, 255); stroke-width: 0;"/><g class="node-attribute"><text xml:space="preserve" x="6" y="14" style="font-family: -apple-system, BlinkMacSystemFont, &quot;Segoe WPC&quot;, &quot;Segoe UI&quot;, Ubuntu, &quot;Droid Sans&quot;, sans-serif, &quot;PingFang SC&quot;; font-size: 9px; font-weight: normal; text-rendering: geometricprecision; user-select: none;"><title>float32[96,3,7,7]</title><tspan style="font-weight: bold;">W</tspan><tspan>〈96×3×7×7〉</tspan></text></g><g class="node-attribute"><text xml:space="preserve" x="6" y="28" style="font-family: -apple-system, BlinkMacSystemFont, &quot;Segoe WPC&quot;, &quot;Segoe UI&quot;, Ubuntu, &quot;Droid Sans&quot;, sans-serif, &quot;PingFang SC&quot;; font-size: 9px; font-weight: normal; text-rendering: geometricprecision; user-select: none;"><title>float32[96]</title><tspan style="font-weight: bold;">B</tspan><tspan>〈96〉</tspan></text></g><line class="node" x1="0" x2="82.78125" y1="0" y2="0" style="stroke: rgb(51, 51, 51); fill: none; stroke-width: 1px;"/></g><path class="node node-border" d="M5,0h72.78125a5,5 0 0 1 5,5v47a5,5 0 0 1 -5,5h-72.78125a5,5 0 0 1 -5,-5v-47a5,5 0 0 1 5,-5z" style="stroke: rgb(51, 51, 51); fill: none; stroke-width: 1px;"/></g><g id="node-name-/conv1_seq/conv1_seq.2/MaxPool" class="node graph-node" transform="translate(20.75,203)" style=""><g class="node-item node-item-type node-item-type-pool" transform="translate(0,0)"><path d="M5,0h45.84375a5,5 0 0 1 5,5v13a5,5 0 0 1 -5,5h-45.84375a5,5 0 0 1 -5,-5v-13a5,5 0 0 1 5,-5z" style="stroke: rgb(0, 0, 0); fill: rgb(51, 85, 51); stroke-width: 0;"/><text x="6" y="16" style="font-family: -apple-system, BlinkMacSystemFont, &quot;Segoe WPC&quot;, &quot;Segoe UI&quot;, Ubuntu, &quot;Droid Sans&quot;, sans-serif, &quot;PingFang SC&quot;; font-size: 11px; text-rendering: geometricprecision; user-select: none; fill: rgb(255, 255, 255);">MaxPool</text><title>/conv1_seq/conv1_seq.2/MaxPool</title></g><path class="node node-border" d="M5,0h45.84375a5,5 0 0 1 5,5v13a5,5 0 0 1 -5,5h-45.84375a5,5 0 0 1 -5,-5v-13a5,5 0 0 1 5,-5z" style="stroke: rgb(51, 51, 51); fill: none; stroke-width: 1px;"/></g><g id="node-name-/conv1_seq/conv1_seq.3/Relu" class="node graph-node" transform="translate(31.21875,246)" style=""><g class="node-item node-item-type node-item-type-activation" transform="translate(0,0)"><path d="M5,0h24.90625a5,5 0 0 1 5,5v13a5,5 0 0 1 -5,5h-24.90625a5,5 0 0 1 -5,-5v-13a5,5 0 0 1 5,-5z" style="stroke: rgb(0, 0, 0); fill: rgb(112, 41, 33); stroke-width: 0;"/><text x="6" y="16" style="font-family: -apple-system, BlinkMacSystemFont, &quot;Segoe WPC&quot;, &quot;Segoe UI&quot;, Ubuntu, &quot;Droid Sans&quot;, sans-serif, &quot;PingFang SC&quot;; font-size: 11px; text-rendering: geometricprecision; user-select: none; fill: rgb(255, 255, 255);">Relu</text><title>/conv1_seq/conv1_seq.3/Relu</title></g><path class="node node-border" d="M5,0h24.90625a5,5 0 0 1 5,5v13a5,5 0 0 1 -5,5h-24.90625a5,5 0 0 1 -5,-5v-13a5,5 0 0 1 5,-5z" style="stroke: rgb(51, 51, 51); fill: none; stroke-width: 1px;"/></g><g id="node-name-/conv2_seq/conv2_seq.0/Conv" class="node graph-node" transform="translate(2.4296875,289)" style=""><g class="node-item node-item-type node-item-type-layer" transform="translate(0,0)"><path d="M5,0h82.484375a5,5 0 0 1 5,5v18a0,0 0 0 1 0,0h-92.484375a0,0 0 0 1 0,0v-18a5,5 0 0 1 5,-5z" style="stroke: rgb(0, 0, 0); fill: rgb(51, 85, 136); stroke-width: 0;"/><text x="6" y="16" style="font-family: -apple-system, BlinkMacSystemFont, &quot;Segoe WPC&quot;, &quot;Segoe UI&quot;, Ubuntu, &quot;Droid Sans&quot;, sans-serif, &quot;PingFang SC&quot;; font-size: 11px; text-rendering: geometricprecision; user-select: none; fill: rgb(255, 255, 255);">Conv</text><title>/conv2_seq/conv2_seq.0/Conv</title></g><g class="node-attribute-list" transform="translate(0,23)"><path d="M0,0h92.484375a0,0 0 0 1 0,0v29a5,5 0 0 1 -5,5h-82.484375a5,5 0 0 1 -5,-5v-29a0,0 0 0 1 0,0z" style="stroke: rgb(0, 0, 0); fill: rgb(255, 255, 255); stroke-width: 0;"/><g class="node-attribute"><text xml:space="preserve" x="6" y="14" style="font-family: -apple-system, BlinkMacSystemFont, &quot;Segoe WPC&quot;, &quot;Segoe UI&quot;, Ubuntu, &quot;Droid Sans&quot;, sans-serif, &quot;PingFang SC&quot;; font-size: 9px; font-weight: normal; text-rendering: geometricprecision; user-select: none;"><title>float32[256,96,5,5]</title><tspan style="font-weight: bold;">W</tspan><tspan>〈256×96×5×5〉</tspan></text></g><g class="node-attribute"><text xml:space="preserve" x="6" y="28" style="font-family: -apple-system, BlinkMacSystemFont, &quot;Segoe WPC&quot;, &quot;Segoe UI&quot;, Ubuntu, &quot;Droid Sans&quot;, sans-serif, &quot;PingFang SC&quot;; font-size: 9px; font-weight: normal; text-rendering: geometricprecision; user-select: none;"><title>float32[256]</title><tspan style="font-weight: bold;">B</tspan><tspan>〈256〉</tspan></text></g><line class="node" x1="0" x2="92.484375" y1="0" y2="0" style="stroke: rgb(51, 51, 51); fill: none; stroke-width: 1px;"/></g><path class="node node-border" d="M5,0h82.484375a5,5 0 0 1 5,5v47a5,5 0 0 1 -5,5h-82.484375a5,5 0 0 1 -5,-5v-47a5,5 0 0 1 5,-5z" style="stroke: rgb(51, 51, 51); fill: none; stroke-width: 1px;"/></g><g id="node-name-/conv2_seq/conv2_seq.2/MaxPool" class="node graph-node" transform="translate(20.75,366)" style=""><g class="node-item node-item-type node-item-type-pool" transform="translate(0,0)"><path d="M5,0h45.84375a5,5 0 0 1 5,5v13a5,5 0 0 1 -5,5h-45.84375a5,5 0 0 1 -5,-5v-13a5,5 0 0 1 5,-5z" style="stroke: rgb(0, 0, 0); fill: rgb(51, 85, 51); stroke-width: 0;"/><text x="6" y="16" style="font-family: -apple-system, BlinkMacSystemFont, &quot;Segoe WPC&quot;, &quot;Segoe UI&quot;, Ubuntu, &quot;Droid Sans&quot;, sans-serif, &quot;PingFang SC&quot;; font-size: 11px; text-rendering: geometricprecision; user-select: none; fill: rgb(255, 255, 255);">MaxPool</text><title>/conv2_seq/conv2_seq.2/MaxPool</title></g><path class="node node-border" d="M5,0h45.84375a5,5 0 0 1 5,5v13a5,5 0 0 1 -5,5h-45.84375a5,5 0 0 1 -5,-5v-13a5,5 0 0 1 5,-5z" style="stroke: rgb(51, 51, 51); fill: none; stroke-width: 1px;"/></g><g id="node-name-/conv2_seq/conv2_seq.3/Relu" class="node graph-node" transform="translate(31.21875,409)" style=""><g class="node-item node-item-type node-item-type-activation" transform="translate(0,0)"><path d="M5,0h24.90625a5,5 0 0 1 5,5v13a5,5 0 0 1 -5,5h-24.90625a5,5 0 0 1 -5,-5v-13a5,5 0 0 1 5,-5z" style="stroke: rgb(0, 0, 0); fill: rgb(112, 41, 33); stroke-width: 0;"/><text x="6" y="16" style="font-family: -apple-system, BlinkMacSystemFont, &quot;Segoe WPC&quot;, &quot;Segoe UI&quot;, Ubuntu, &quot;Droid Sans&quot;, sans-serif, &quot;PingFang SC&quot;; font-size: 11px; text-rendering: geometricprecision; user-select: none; fill: rgb(255, 255, 255);">Relu</text><title>/conv2_seq/conv2_seq.3/Relu</title></g><path class="node node-border" d="M5,0h24.90625a5,5 0 0 1 5,5v13a5,5 0 0 1 -5,5h-24.90625a5,5 0 0 1 -5,-5v-13a5,5 0 0 1 5,-5z" style="stroke: rgb(51, 51, 51); fill: none; stroke-width: 1px;"/></g><g id="node-name-/conv3_seq/conv3_seq.0/Conv" class="node graph-node" transform="translate(0,452)" style=""><g class="node-item node-item-type node-item-type-layer" transform="translate(0,0)"><path d="M5,0h87.34375a5,5 0 0 1 5,5v18a0,0 0 0 1 0,0h-97.34375a0,0 0 0 1 0,0v-18a5,5 0 0 1 5,-5z" style="stroke: rgb(0, 0, 0); fill: rgb(51, 85, 136); stroke-width: 0;"/><text x="6" y="16" style="font-family: -apple-system, BlinkMacSystemFont, &quot;Segoe WPC&quot;, &quot;Segoe UI&quot;, Ubuntu, &quot;Droid Sans&quot;, sans-serif, &quot;PingFang SC&quot;; font-size: 11px; text-rendering: geometricprecision; user-select: none; fill: rgb(255, 255, 255);">Conv</text><title>/conv3_seq/conv3_seq.0/Conv</title></g><g class="node-attribute-list" transform="translate(0,23)"><path d="M0,0h97.34375a0,0 0 0 1 0,0v29a5,5 0 0 1 -5,5h-87.34375a5,5 0 0 1 -5,-5v-29a0,0 0 0 1 0,0z" style="stroke: rgb(0, 0, 0); fill: rgb(255, 255, 255); stroke-width: 0;"/><g class="node-attribute"><text xml:space="preserve" x="6" y="14" style="font-family: -apple-system, BlinkMacSystemFont, &quot;Segoe WPC&quot;, &quot;Segoe UI&quot;, Ubuntu, &quot;Droid Sans&quot;, sans-serif, &quot;PingFang SC&quot;; font-size: 9px; font-weight: normal; text-rendering: geometricprecision; user-select: none;"><title>float32[384,256,3,3]</title><tspan style="font-weight: bold;">W</tspan><tspan>〈384×256×3×3〉</tspan></text></g><g class="node-attribute"><text xml:space="preserve" x="6" y="28" style="font-family: -apple-system, BlinkMacSystemFont, &quot;Segoe WPC&quot;, &quot;Segoe UI&quot;, Ubuntu, &quot;Droid Sans&quot;, sans-serif, &quot;PingFang SC&quot;; font-size: 9px; font-weight: normal; text-rendering: geometricprecision; user-select: none;"><title>float32[384]</title><tspan style="font-weight: bold;">B</tspan><tspan>〈384〉</tspan></text></g><line class="node" x1="0" x2="97.34375" y1="0" y2="0" style="stroke: rgb(51, 51, 51); fill: none; stroke-width: 1px;"/></g><path class="node node-border" d="M5,0h87.34375a5,5 0 0 1 5,5v47a5,5 0 0 1 -5,5h-87.34375a5,5 0 0 1 -5,-5v-47a5,5 0 0 1 5,-5z" style="stroke: rgb(51, 51, 51); fill: none; stroke-width: 1px;"/></g><g id="node-name-/conv3_seq/conv3_seq.2/Relu" class="node graph-node" transform="translate(31.21875,529)" style=""><g class="node-item node-item-type node-item-type-activation" transform="translate(0,0)"><path d="M5,0h24.90625a5,5 0 0 1 5,5v13a5,5 0 0 1 -5,5h-24.90625a5,5 0 0 1 -5,-5v-13a5,5 0 0 1 5,-5z" style="stroke: rgb(0, 0, 0); fill: rgb(112, 41, 33); stroke-width: 0;"/><text x="6" y="16" style="font-family: -apple-system, BlinkMacSystemFont, &quot;Segoe WPC&quot;, &quot;Segoe UI&quot;, Ubuntu, &quot;Droid Sans&quot;, sans-serif, &quot;PingFang SC&quot;; font-size: 11px; text-rendering: geometricprecision; user-select: none; fill: rgb(255, 255, 255);">Relu</text><title>/conv3_seq/conv3_seq.2/Relu</title></g><path class="node node-border" d="M5,0h24.90625a5,5 0 0 1 5,5v13a5,5 0 0 1 -5,5h-24.90625a5,5 0 0 1 -5,-5v-13a5,5 0 0 1 5,-5z" style="stroke: rgb(51, 51, 51); fill: none; stroke-width: 1px;"/></g><g id="node-name-/conv4_seq/conv4_seq.0/Conv" class="node graph-node" transform="translate(0,572)" style=""><g class="node-item node-item-type node-item-type-layer" transform="translate(0,0)"><path d="M5,0h87.34375a5,5 0 0 1 5,5v18a0,0 0 0 1 0,0h-97.34375a0,0 0 0 1 0,0v-18a5,5 0 0 1 5,-5z" style="stroke: rgb(0, 0, 0); fill: rgb(51, 85, 136); stroke-width: 0;"/><text x="6" y="16" style="font-family: -apple-system, BlinkMacSystemFont, &quot;Segoe WPC&quot;, &quot;Segoe UI&quot;, Ubuntu, &quot;Droid Sans&quot;, sans-serif, &quot;PingFang SC&quot;; font-size: 11px; text-rendering: geometricprecision; user-select: none; fill: rgb(255, 255, 255);">Conv</text><title>/conv4_seq/conv4_seq.0/Conv</title></g><g class="node-attribute-list" transform="translate(0,23)"><path d="M0,0h97.34375a0,0 0 0 1 0,0v29a5,5 0 0 1 -5,5h-87.34375a5,5 0 0 1 -5,-5v-29a0,0 0 0 1 0,0z" style="stroke: rgb(0, 0, 0); fill: rgb(255, 255, 255); stroke-width: 0;"/><g class="node-attribute"><text xml:space="preserve" x="6" y="14" style="font-family: -apple-system, BlinkMacSystemFont, &quot;Segoe WPC&quot;, &quot;Segoe UI&quot;, Ubuntu, &quot;Droid Sans&quot;, sans-serif, &quot;PingFang SC&quot;; font-size: 9px; font-weight: normal; text-rendering: geometricprecision; user-select: none;"><title>float32[384,384,3,3]</title><tspan style="font-weight: bold;">W</tspan><tspan>〈384×384×3×3〉</tspan></text></g><g class="node-attribute"><text xml:space="preserve" x="6" y="28" style="font-family: -apple-system, BlinkMacSystemFont, &quot;Segoe WPC&quot;, &quot;Segoe UI&quot;, Ubuntu, &quot;Droid Sans&quot;, sans-serif, &quot;PingFang SC&quot;; font-size: 9px; font-weight: normal; text-rendering: geometricprecision; user-select: none;"><title>float32[384]</title><tspan style="font-weight: bold;">B</tspan><tspan>〈384〉</tspan></text></g><line class="node" x1="0" x2="97.34375" y1="0" y2="0" style="stroke: rgb(51, 51, 51); fill: none; stroke-width: 1px;"/></g><path class="node node-border" d="M5,0h87.34375a5,5 0 0 1 5,5v47a5,5 0 0 1 -5,5h-87.34375a5,5 0 0 1 -5,-5v-47a5,5 0 0 1 5,-5z" style="stroke: rgb(51, 51, 51); fill: none; stroke-width: 1px;"/></g><g id="node-name-/conv4_seq/conv4_seq.2/Relu" class="node graph-node" transform="translate(31.21875,649)" style=""><g class="node-item node-item-type node-item-type-activation" transform="translate(0,0)"><path d="M5,0h24.90625a5,5 0 0 1 5,5v13a5,5 0 0 1 -5,5h-24.90625a5,5 0 0 1 -5,-5v-13a5,5 0 0 1 5,-5z" style="stroke: rgb(0, 0, 0); fill: rgb(112, 41, 33); stroke-width: 0;"/><text x="6" y="16" style="font-family: -apple-system, BlinkMacSystemFont, &quot;Segoe WPC&quot;, &quot;Segoe UI&quot;, Ubuntu, &quot;Droid Sans&quot;, sans-serif, &quot;PingFang SC&quot;; font-size: 11px; text-rendering: geometricprecision; user-select: none; fill: rgb(255, 255, 255);">Relu</text><title>/conv4_seq/conv4_seq.2/Relu</title></g><path class="node node-border" d="M5,0h24.90625a5,5 0 0 1 5,5v13a5,5 0 0 1 -5,5h-24.90625a5,5 0 0 1 -5,-5v-13a5,5 0 0 1 5,-5z" style="stroke: rgb(51, 51, 51); fill: none; stroke-width: 1px;"/></g><g id="node-name-/conv5_seq/conv5_seq.0/Conv" class="node graph-node" transform="translate(0,692)" style=""><g class="node-item node-item-type node-item-type-layer" transform="translate(0,0)"><path d="M5,0h87.34375a5,5 0 0 1 5,5v18a0,0 0 0 1 0,0h-97.34375a0,0 0 0 1 0,0v-18a5,5 0 0 1 5,-5z" style="stroke: rgb(0, 0, 0); fill: rgb(51, 85, 136); stroke-width: 0;"/><text x="6" y="16" style="font-family: -apple-system, BlinkMacSystemFont, &quot;Segoe WPC&quot;, &quot;Segoe UI&quot;, Ubuntu, &quot;Droid Sans&quot;, sans-serif, &quot;PingFang SC&quot;; font-size: 11px; text-rendering: geometricprecision; user-select: none; fill: rgb(255, 255, 255);">Conv</text><title>/conv5_seq/conv5_seq.0/Conv</title></g><g class="node-attribute-list" transform="translate(0,23)"><path d="M0,0h97.34375a0,0 0 0 1 0,0v29a5,5 0 0 1 -5,5h-87.34375a5,5 0 0 1 -5,-5v-29a0,0 0 0 1 0,0z" style="stroke: rgb(0, 0, 0); fill: rgb(255, 255, 255); stroke-width: 0;"/><g class="node-attribute"><text xml:space="preserve" x="6" y="14" style="font-family: -apple-system, BlinkMacSystemFont, &quot;Segoe WPC&quot;, &quot;Segoe UI&quot;, Ubuntu, &quot;Droid Sans&quot;, sans-serif, &quot;PingFang SC&quot;; font-size: 9px; font-weight: normal; text-rendering: geometricprecision; user-select: none;"><title>float32[256,384,3,3]</title><tspan style="font-weight: bold;">W</tspan><tspan>〈256×384×3×3〉</tspan></text></g><g class="node-attribute"><text xml:space="preserve" x="6" y="28" style="font-family: -apple-system, BlinkMacSystemFont, &quot;Segoe WPC&quot;, &quot;Segoe UI&quot;, Ubuntu, &quot;Droid Sans&quot;, sans-serif, &quot;PingFang SC&quot;; font-size: 9px; font-weight: normal; text-rendering: geometricprecision; user-select: none;"><title>float32[256]</title><tspan style="font-weight: bold;">B</tspan><tspan>〈256〉</tspan></text></g><line class="node" x1="0" x2="97.34375" y1="0" y2="0" style="stroke: rgb(51, 51, 51); fill: none; stroke-width: 1px;"/></g><path class="node node-border" d="M5,0h87.34375a5,5 0 0 1 5,5v47a5,5 0 0 1 -5,5h-87.34375a5,5 0 0 1 -5,-5v-47a5,5 0 0 1 5,-5z" style="stroke: rgb(51, 51, 51); fill: none; stroke-width: 1px;"/></g><g id="node-name-/conv5_seq/conv5_seq.2/MaxPool" class="node graph-node" transform="translate(20.75,769)" style=""><g class="node-item node-item-type node-item-type-pool" transform="translate(0,0)"><path d="M5,0h45.84375a5,5 0 0 1 5,5v13a5,5 0 0 1 -5,5h-45.84375a5,5 0 0 1 -5,-5v-13a5,5 0 0 1 5,-5z" style="stroke: rgb(0, 0, 0); fill: rgb(51, 85, 51); stroke-width: 0;"/><text x="6" y="16" style="font-family: -apple-system, BlinkMacSystemFont, &quot;Segoe WPC&quot;, &quot;Segoe UI&quot;, Ubuntu, &quot;Droid Sans&quot;, sans-serif, &quot;PingFang SC&quot;; font-size: 11px; text-rendering: geometricprecision; user-select: none; fill: rgb(255, 255, 255);">MaxPool</text><title>/conv5_seq/conv5_seq.2/MaxPool</title></g><path class="node node-border" d="M5,0h45.84375a5,5 0 0 1 5,5v13a5,5 0 0 1 -5,5h-45.84375a5,5 0 0 1 -5,-5v-13a5,5 0 0 1 5,-5z" style="stroke: rgb(51, 51, 51); fill: none; stroke-width: 1px;"/></g><g id="node-name-/conv5_seq/conv5_seq.3/Relu" class="node graph-node" transform="translate(31.21875,812)" style=""><g class="node-item node-item-type node-item-type-activation" transform="translate(0,0)"><path d="M5,0h24.90625a5,5 0 0 1 5,5v13a5,5 0 0 1 -5,5h-24.90625a5,5 0 0 1 -5,-5v-13a5,5 0 0 1 5,-5z" style="stroke: rgb(0, 0, 0); fill: rgb(112, 41, 33); stroke-width: 0;"/><text x="6" y="16" style="font-family: -apple-system, BlinkMacSystemFont, &quot;Segoe WPC&quot;, &quot;Segoe UI&quot;, Ubuntu, &quot;Droid Sans&quot;, sans-serif, &quot;PingFang SC&quot;; font-size: 11px; text-rendering: geometricprecision; user-select: none; fill: rgb(255, 255, 255);">Relu</text><title>/conv5_seq/conv5_seq.3/Relu</title></g><path class="node node-border" d="M5,0h24.90625a5,5 0 0 1 5,5v13a5,5 0 0 1 -5,5h-24.90625a5,5 0 0 1 -5,-5v-13a5,5 0 0 1 5,-5z" style="stroke: rgb(51, 51, 51); fill: none; stroke-width: 1px;"/></g><g id="node-name-/flatten/Flatten" class="node graph-node" transform="translate(25.1328125,855)" style=""><g class="node-item node-item-type node-item-type-shape" transform="translate(0,0)"><path d="M5,0h37.078125a5,5 0 0 1 5,5v13a5,5 0 0 1 -5,5h-37.078125a5,5 0 0 1 -5,-5v-13a5,5 0 0 1 5,-5z" style="stroke: rgb(0, 0, 0); fill: rgb(108, 79, 71); stroke-width: 0;"/><text x="6" y="16" style="font-family: -apple-system, BlinkMacSystemFont, &quot;Segoe WPC&quot;, &quot;Segoe UI&quot;, Ubuntu, &quot;Droid Sans&quot;, sans-serif, &quot;PingFang SC&quot;; font-size: 11px; text-rendering: geometricprecision; user-select: none; fill: rgb(255, 255, 255);">Flatten</text><title>/flatten/Flatten</title></g><path class="node node-border" d="M5,0h37.078125a5,5 0 0 1 5,5v13a5,5 0 0 1 -5,5h-37.078125a5,5 0 0 1 -5,-5v-13a5,5 0 0 1 5,-5z" style="stroke: rgb(51, 51, 51); fill: none; stroke-width: 1px;"/></g><g id="node-name-/fc1/fc1.0/Gemm" class="node graph-node" transform="translate(10.71875,898)" style=""><g class="node-item node-item-type node-item-type-layer" transform="translate(0,0)"><path d="M5,0h65.90625a5,5 0 0 1 5,5v18a0,0 0 0 1 0,0h-75.90625a0,0 0 0 1 0,0v-18a5,5 0 0 1 5,-5z" style="stroke: rgb(0, 0, 0); fill: rgb(51, 85, 136); stroke-width: 0;"/><text x="6" y="16" style="font-family: -apple-system, BlinkMacSystemFont, &quot;Segoe WPC&quot;, &quot;Segoe UI&quot;, Ubuntu, &quot;Droid Sans&quot;, sans-serif, &quot;PingFang SC&quot;; font-size: 11px; text-rendering: geometricprecision; user-select: none; fill: rgb(255, 255, 255);">Gemm</text><title>/fc1/fc1.0/Gemm</title></g><g class="node-attribute-list" transform="translate(0,23)"><path d="M0,0h75.90625a0,0 0 0 1 0,0v29a5,5 0 0 1 -5,5h-65.90625a5,5 0 0 1 -5,-5v-29a0,0 0 0 1 0,0z" style="stroke: rgb(0, 0, 0); fill: rgb(255, 255, 255); stroke-width: 0;"/><g class="node-attribute"><text xml:space="preserve" x="6" y="14" style="font-family: -apple-system, BlinkMacSystemFont, &quot;Segoe WPC&quot;, &quot;Segoe UI&quot;, Ubuntu, &quot;Droid Sans&quot;, sans-serif, &quot;PingFang SC&quot;; font-size: 9px; font-weight: normal; text-rendering: geometricprecision; user-select: none;"><title>float32[512,1024]</title><tspan style="font-weight: bold;">B</tspan><tspan>〈512×1024〉</tspan></text></g><g class="node-attribute"><text xml:space="preserve" x="6" y="28" style="font-family: -apple-system, BlinkMacSystemFont, &quot;Segoe WPC&quot;, &quot;Segoe UI&quot;, Ubuntu, &quot;Droid Sans&quot;, sans-serif, &quot;PingFang SC&quot;; font-size: 9px; font-weight: normal; text-rendering: geometricprecision; user-select: none;"><title>float32[512]</title><tspan style="font-weight: bold;">C</tspan><tspan>〈512〉</tspan></text></g><line class="node" x1="0" x2="75.90625" y1="0" y2="0" style="stroke: rgb(51, 51, 51); fill: none; stroke-width: 1px;"/></g><path class="node node-border" d="M5,0h65.90625a5,5 0 0 1 5,5v47a5,5 0 0 1 -5,5h-65.90625a5,5 0 0 1 -5,-5v-47a5,5 0 0 1 5,-5z" style="stroke: rgb(51, 51, 51); fill: none; stroke-width: 1px;"/></g><g id="node-name-/fc1/fc1.1/Relu" class="node graph-node" transform="translate(31.21875,975)" style=""><g class="node-item node-item-type node-item-type-activation" transform="translate(0,0)"><path d="M5,0h24.90625a5,5 0 0 1 5,5v13a5,5 0 0 1 -5,5h-24.90625a5,5 0 0 1 -5,-5v-13a5,5 0 0 1 5,-5z" style="stroke: rgb(0, 0, 0); fill: rgb(112, 41, 33); stroke-width: 0;"/><text x="6" y="16" style="font-family: -apple-system, BlinkMacSystemFont, &quot;Segoe WPC&quot;, &quot;Segoe UI&quot;, Ubuntu, &quot;Droid Sans&quot;, sans-serif, &quot;PingFang SC&quot;; font-size: 11px; text-rendering: geometricprecision; user-select: none; fill: rgb(255, 255, 255);">Relu</text><title>/fc1/fc1.1/Relu</title></g><path class="node node-border" d="M5,0h24.90625a5,5 0 0 1 5,5v13a5,5 0 0 1 -5,5h-24.90625a5,5 0 0 1 -5,-5v-13a5,5 0 0 1 5,-5z" style="stroke: rgb(51, 51, 51); fill: none; stroke-width: 1px;"/></g><g id="node-name-/fc2/fc2.0/Gemm" class="node graph-node" transform="translate(11.171875,1018)" style=""><g class="node-item node-item-type node-item-type-layer" transform="translate(0,0)"><path d="M5,0h65a5,5 0 0 1 5,5v18a0,0 0 0 1 0,0h-75a0,0 0 0 1 0,0v-18a5,5 0 0 1 5,-5z" style="stroke: rgb(0, 0, 0); fill: rgb(51, 85, 136); stroke-width: 0;"/><text x="6" y="16" style="font-family: -apple-system, BlinkMacSystemFont, &quot;Segoe WPC&quot;, &quot;Segoe UI&quot;, Ubuntu, &quot;Droid Sans&quot;, sans-serif, &quot;PingFang SC&quot;; font-size: 11px; text-rendering: geometricprecision; user-select: none; fill: rgb(255, 255, 255);">Gemm</text><title>/fc2/fc2.0/Gemm</title></g><g class="node-attribute-list" transform="translate(0,23)"><path d="M0,0h75a0,0 0 0 1 0,0v29a5,5 0 0 1 -5,5h-65a5,5 0 0 1 -5,-5v-29a0,0 0 0 1 0,0z" style="stroke: rgb(0, 0, 0); fill: rgb(255, 255, 255); stroke-width: 0;"/><g class="node-attribute"><text xml:space="preserve" x="6" y="14" style="font-family: -apple-system, BlinkMacSystemFont, &quot;Segoe WPC&quot;, &quot;Segoe UI&quot;, Ubuntu, &quot;Droid Sans&quot;, sans-serif, &quot;PingFang SC&quot;; font-size: 9px; font-weight: normal; text-rendering: geometricprecision; user-select: none;"><title>float32[512,512]</title><tspan style="font-weight: bold;">B</tspan><tspan>〈512×512〉</tspan></text></g><g class="node-attribute"><text xml:space="preserve" x="6" y="28" style="font-family: -apple-system, BlinkMacSystemFont, &quot;Segoe WPC&quot;, &quot;Segoe UI&quot;, Ubuntu, &quot;Droid Sans&quot;, sans-serif, &quot;PingFang SC&quot;; font-size: 9px; font-weight: normal; text-rendering: geometricprecision; user-select: none;"><title>float32[512]</title><tspan style="font-weight: bold;">C</tspan><tspan>〈512〉</tspan></text></g><line class="node" x1="0" x2="75" y1="0" y2="0" style="stroke: rgb(51, 51, 51); fill: none; stroke-width: 1px;"/></g><path class="node node-border" d="M5,0h65a5,5 0 0 1 5,5v47a5,5 0 0 1 -5,5h-65a5,5 0 0 1 -5,-5v-47a5,5 0 0 1 5,-5z" style="stroke: rgb(51, 51, 51); fill: none; stroke-width: 1px;"/></g><g id="node-name-/fc2/fc2.1/Relu" class="node graph-node" transform="translate(31.21875,1095)" style=""><g class="node-item node-item-type node-item-type-activation" transform="translate(0,0)"><path d="M5,0h24.90625a5,5 0 0 1 5,5v13a5,5 0 0 1 -5,5h-24.90625a5,5 0 0 1 -5,-5v-13a5,5 0 0 1 5,-5z" style="stroke: rgb(0, 0, 0); fill: rgb(112, 41, 33); stroke-width: 0;"/><text x="6" y="16" style="font-family: -apple-system, BlinkMacSystemFont, &quot;Segoe WPC&quot;, &quot;Segoe UI&quot;, Ubuntu, &quot;Droid Sans&quot;, sans-serif, &quot;PingFang SC&quot;; font-size: 11px; text-rendering: geometricprecision; user-select: none; fill: rgb(255, 255, 255);">Relu</text><title>/fc2/fc2.1/Relu</title></g><path class="node node-border" d="M5,0h24.90625a5,5 0 0 1 5,5v13a5,5 0 0 1 -5,5h-24.90625a5,5 0 0 1 -5,-5v-13a5,5 0 0 1 5,-5z" style="stroke: rgb(51, 51, 51); fill: none; stroke-width: 1px;"/></g><g id="node-name-/fc3/Gemm" class="node graph-node" transform="translate(11.171875,1138)" style=""><g class="node-item node-item-type node-item-type-layer" transform="translate(0,0)"><path d="M5,0h65a5,5 0 0 1 5,5v18a0,0 0 0 1 0,0h-75a0,0 0 0 1 0,0v-18a5,5 0 0 1 5,-5z" style="stroke: rgb(0, 0, 0); fill: rgb(51, 85, 136); stroke-width: 0;"/><text x="6" y="16" style="font-family: -apple-system, BlinkMacSystemFont, &quot;Segoe WPC&quot;, &quot;Segoe UI&quot;, Ubuntu, &quot;Droid Sans&quot;, sans-serif, &quot;PingFang SC&quot;; font-size: 11px; text-rendering: geometricprecision; user-select: none; fill: rgb(255, 255, 255);">Gemm</text><title>/fc3/Gemm</title></g><g class="node-attribute-list" transform="translate(0,23)"><path d="M0,0h75a0,0 0 0 1 0,0v29a5,5 0 0 1 -5,5h-65a5,5 0 0 1 -5,-5v-29a0,0 0 0 1 0,0z" style="stroke: rgb(0, 0, 0); fill: rgb(255, 255, 255); stroke-width: 0;"/><g class="node-attribute"><text xml:space="preserve" x="6" y="14" style="font-family: -apple-system, BlinkMacSystemFont, &quot;Segoe WPC&quot;, &quot;Segoe UI&quot;, Ubuntu, &quot;Droid Sans&quot;, sans-serif, &quot;PingFang SC&quot;; font-size: 9px; font-weight: normal; text-rendering: geometricprecision; user-select: none;"><title>float32[10,512]</title><tspan style="font-weight: bold;">B</tspan><tspan>〈10×512〉</tspan></text></g><g class="node-attribute"><text xml:space="preserve" x="6" y="28" style="font-family: -apple-system, BlinkMacSystemFont, &quot;Segoe WPC&quot;, &quot;Segoe UI&quot;, Ubuntu, &quot;Droid Sans&quot;, sans-serif, &quot;PingFang SC&quot;; font-size: 9px; font-weight: normal; text-rendering: geometricprecision; user-select: none;"><title>float32[10]</title><tspan style="font-weight: bold;">C</tspan><tspan>〈10〉</tspan></text></g><line class="node" x1="0" x2="75" y1="0" y2="0" style="stroke: rgb(51, 51, 51); fill: none; stroke-width: 1px;"/></g><path class="node node-border" d="M5,0h65a5,5 0 0 1 5,5v47a5,5 0 0 1 -5,5h-65a5,5 0 0 1 -5,-5v-47a5,5 0 0 1 5,-5z" style="stroke: rgb(51, 51, 51); fill: none; stroke-width: 1px;"/></g><g class="node" transform="translate(25.126953125,1239)" style=""><g class="node-item graph-item-output" transform="translate(0,0)"><path d="M5,0h37.08984375a5,5 0 0 1 5,5v13a5,5 0 0 1 -5,5h-37.08984375a5,5 0 0 1 -5,-5v-13a5,5 0 0 1 5,-5z" style="stroke: rgb(0, 0, 0); fill: rgb(238, 238, 238); stroke-width: 0;"/><text x="6" y="16" style="font-family: -apple-system, BlinkMacSystemFont, &quot;Segoe WPC&quot;, &quot;Segoe UI&quot;, Ubuntu, &quot;Droid Sans&quot;, sans-serif, &quot;PingFang SC&quot;; font-size: 11px; text-rendering: geometricprecision; user-select: none;">output</text><title>float32[batch_size,10]</title></g><path class="node node-border" d="M5,0h37.08984375a5,5 0 0 1 5,5v13a5,5 0 0 1 -5,5h-37.08984375a5,5 0 0 1 -5,-5v-13a5,5 0 0 1 5,-5z" style="stroke: rgb(51, 51, 51); fill: none; stroke-width: 1px;"/></g></g></g></svg>